<?xml version="1.0" standalone="no"?>
<!DOCTYPE svg PUBLIC "-//W3C//DTD SVG 20010904//EN"
 "http://www.w3.org/TR/2001/REC-SVG-20010904/DTD/svg10.dtd">
<svg version="1.0" xmlns="http://www.w3.org/2000/svg"
 width="1024.000000pt" height="1024.000000pt" viewBox="0 0 1024.000000 1024.000000"
 preserveAspectRatio="xMidYMid meet">

  <defs>
    <linearGradient id="customGradient" gradientUnits="userSpaceOnUse"
      x1="0" y1="0" x2="4000" y2="30040">
      <stop offset="0%" style="stop-color:rgb(182, 244, 146)" /> 
      <stop offset="100%" style="stop-color:rgb(51, 139, 147)" />
    </linearGradient>
  </defs>

<g transform="translate(0.000000,1024.000000) scale(0.100000,-0.100000)" fill="url(#customGradient)"
stroke="none">
<path d="M4895 7934 c-16 -2 -86 -11 -155 -20 -166 -21 -451 -93 -619 -155
-300 -111 -605 -283 -855 -482 -306 -244 -614 -627 -789 -981 -123 -248 -200
-486 -250 -771 -31 -174 -32 -190 -32 -465 0 -290 5 -345 46 -560 113 -584
380 -1099 779 -1501 383 -386 912 -675 1460 -797 265 -59 340 -67 645 -67 242
1 298 4 414 23 281 47 446 93 684 188 601 241 1068 628 1406 1165 50 81 177
342 221 457 84 218 165 569 190 821 13 129 13 414 0 544 -35 362 -160 754
-347 1087 -302 539 -727 940 -1288 1216 -202 99 -374 163 -585 216 -261 65
-372 80 -650 83 -135 2 -258 1 -275 -1z m575 -509 c434 -73 824 -251 1185
-542 188 -151 378 -359 517 -568 88 -133 208 -380 260 -540 92 -278 124 -502
114 -810 -10 -341 -68 -611 -193 -905 -64 -149 -215 -420 -239 -427 -5 -1 -44
62 -88 140 -113 205 -198 337 -217 337 -9 0 -23 -8 -31 -17 -50 -58 -248 -438
-288 -553 -46 -132 -37 -273 25 -402 l24 -49 -112 -74 c-223 -146 -472 -256
-737 -324 -227 -58 -354 -75 -560 -74 -377 2 -707 81 -1055 253 -155 77 -375
210 -375 228 0 5 13 33 29 63 59 110 64 233 15 379 -47 138 -252 531 -298 569
-13 11 -19 11 -31 1 -25 -21 -109 -161 -194 -322 -45 -87 -87 -158 -92 -158
-17 0 -110 154 -185 305 -108 222 -174 425 -226 700 -20 107 -22 152 -23 405
0 309 5 353 65 591 169 670 637 1227 1318 1568 264 133 510 204 842 245 80 10
458 -3 550 -19z"/>
<path d="M3830 5974 c-201 -56 -364 -194 -464 -392 -63 -125 -65 -144 -68
-582 -2 -303 0 -405 10 -438 16 -52 71 -116 123 -143 82 -41 205 -15 268 57
57 64 61 100 61 501 0 233 4 380 11 408 30 118 165 192 280 154 82 -28 132
-88 150 -182 29 -147 170 -225 299 -166 59 27 77 44 108 104 30 60 34 159 9
245 -53 178 -231 354 -427 421 -86 29 -278 36 -360 13z"/>
<path d="M6086 5974 c-32 -8 -99 -35 -148 -61 -70 -37 -106 -65 -167 -128
-199 -207 -228 -463 -65 -578 126 -88 299 -5 329 158 15 87 90 166 172 181 91
17 199 -35 241 -118 24 -46 24 -50 28 -425 3 -208 7 -397 10 -419 22 -181 276
-249 394 -106 58 70 60 88 60 506 0 435 -3 455 -76 603 -95 192 -283 343 -481
387 -87 19 -217 19 -297 0z"/>
<path d="M4258 4464 c-59 -18 -129 -93 -159 -172 -18 -50 -20 -71 -16 -167 6
-119 25 -192 79 -300 140 -276 386 -469 698 -546 81 -20 119 -23 265 -23 151
1 181 4 270 27 115 31 261 98 349 161 79 57 198 183 259 274 102 153 150 293
151 437 1 78 -3 98 -27 150 -35 75 -78 121 -142 151 l-50 24 -815 -1 c-678 0
-823 -3 -862 -15z"/>
</g>
</svg>
